HIERARCHY
ROOT joint_0
{
	OFFSET 0.000000 0.000000 0.000000
	CHANNELS 6 Xposition Yposition Zposition Zrotation Yrotation Xrotation 
	JOINT joint_1
	{
		OFFSET 5.091736 1.614004 124.993042
		CHANNELS 3 Zrotation Yrotation Xrotation
		JOINT joint_2
		{
			OFFSET -7.754517 4.363039 113.797974
			CHANNELS 3 Zrotation Yrotation Xrotation
			JOINT joint_3
			{
				OFFSET -8.706238 5.370684 113.558960
				CHANNELS 3 Zrotation Yrotation Xrotation
				JOINT joint_4
				{
					OFFSET 2.800659 5.843341 158.209106
					CHANNELS 3 Zrotation Yrotation Xrotation
					JOINT joint_5
					{
						OFFSET 20.525452 8.617594 92.185913
						CHANNELS 3 Zrotation Yrotation Xrotation
						End Site
						{
							OFFSET 0.000000 0.000000 0.000000
						}
					}
				}
				JOINT joint_6
				{
					OFFSET -4.183167 -30.671114 90.057007
					CHANNELS 3 Zrotation Yrotation Xrotation
					JOINT joint_7
					{
						OFFSET -24.729675 -138.200195 -6.097900
						CHANNELS 3 Zrotation Yrotation Xrotation
						JOINT joint_8
						{
							OFFSET 16.966858 -51.567780 -315.633057
							CHANNELS 3 Zrotation Yrotation Xrotation
							JOINT joint_9
							{
								OFFSET 129.835388 -40.459091 176.646973
								CHANNELS 3 Zrotation Yrotation Xrotation
								End Site
								{
									OFFSET 0.000000 0.000000 0.000000
								}
							}
						}
					}
				}
				JOINT joint_10
				{
					OFFSET 7.338745 37.199406 87.346069
					CHANNELS 3 Zrotation Yrotation Xrotation
					JOINT joint_11
					{
						OFFSET 20.327698 137.488367 -20.779053
						CHANNELS 3 Zrotation Yrotation Xrotation
						JOINT joint_12
						{
							OFFSET 150.763062 48.206573 -278.419922
							CHANNELS 3 Zrotation Yrotation Xrotation
							JOINT joint_13
							{
								OFFSET 12.571289 -162.355251 152.253906
								CHANNELS 3 Zrotation Yrotation Xrotation
								End Site
								{
									OFFSET 0.000000 0.000000 0.000000
								}
							}
						}
					}
				}
			}
		}
	}
	JOINT joint_14
	{
		OFFSET -7.600342 -77.970001 -95.010986
		CHANNELS 3 Zrotation Yrotation Xrotation
		JOINT joint_15
		{
			OFFSET -2.666199 -21.455009 -443.700989
			CHANNELS 3 Zrotation Yrotation Xrotation
			JOINT joint_16
			{
				OFFSET -22.487976 -19.310196 -481.059006
				CHANNELS 3 Zrotation Yrotation Xrotation
				JOINT joint_17
				{
					OFFSET 177.776611 65.723053 -82.445997
					CHANNELS 3 Zrotation Yrotation Xrotation
					End Site
					{
						OFFSET 0.000000 0.000000 0.000000
					}
				}
			}
		}
	}
	JOINT joint_18
	{
		OFFSET 17.063904 75.900681 -95.447021
		CHANNELS 3 Zrotation Yrotation Xrotation
		JOINT joint_19
		{
			OFFSET -21.510803 8.101997 -443.629944
			CHANNELS 3 Zrotation Yrotation Xrotation
			JOINT joint_20
			{
				OFFSET -7.473022 -28.501774 -481.230011
				CHANNELS 3 Zrotation Yrotation Xrotation
				JOINT joint_21
				{
					OFFSET 177.760559 -64.115177 -83.737001
					CHANNELS 3 Zrotation Yrotation Xrotation
					End Site
					{
						OFFSET 0.000000 0.000000 0.000000
					}
				}
			}
		}
	}
}
MOTION
Frames: 11
Frame Time: 0.016667
1142.907349 -77.480415 1119.404053 15.831500 -0.076985 1.598855 -0.155482 2.459660 1.896497 -0.132730 -0.252600 -0.330970 -0.105772 0.590832 0.353832 -0.541467 -4.484062 3.261805 0.000000 0.000000 0.000000 2.992534 -2.431311 4.001297 5.485388 -0.591480 -1.479891 175.415468 35.268566 179.957388 0.000000 0.000000 0.000000 -6.773880 17.697811 -1.615128 -21.038560 4.421833 1.391731 50.952482 -20.365170 115.807452 0.000000 0.000000 0.000000 -8.997167 3.514616 -5.321059 -8.676488 -1.718078 0.722052 -8.463584 -3.955357 -2.416512 0.000000 0.000000 0.000000 -0.531449 -3.232663 2.397330 -0.430703 3.608015 3.671204 0.145718 -3.009827 -1.012178 0.000000 0.000000 0.000000 
1142.696777 -77.241287 1119.415039 15.847005 -0.123139 1.592083 -0.127277 2.439983 1.893270 -0.106327 -0.248705 -0.329860 -0.079176 0.586178 0.350798 -0.565950 -4.116278 3.314741 0.000000 0.000000 0.000000 2.905698 -2.432910 4.011806 5.757354 -0.598494 -1.537035 175.641015 35.360575 -179.979215 0.000000 0.000000 0.000000 -6.746796 17.712535 -1.618846 -20.999428 4.425599 1.334665 50.976810 -20.404145 115.777264 0.000000 0.000000 0.000000 -9.001671 3.537764 -5.329159 -8.681534 -1.684998 0.708241 -8.467532 -3.966243 -2.414088 0.000000 0.000000 0.000000 -0.535473 -3.215177 2.380942 -0.435676 3.652178 3.681975 0.145755 -3.021325 -1.016312 0.000000 0.000000 0.000000 
1142.490723 -76.990875 1119.433960 15.865620 -0.157519 1.583509 -0.098518 2.412068 1.888243 -0.079749 -0.245073 -0.329981 -0.052182 0.580367 0.349006 -0.593890 -3.752212 3.376387 0.000000 0.000000 0.000000 2.800143 -2.404133 4.021245 6.114466 -0.595663 -1.582028 175.940016 35.529165 -179.892583 0.000000 0.000000 0.000000 -6.714609 17.722602 -1.617726 -20.918248 4.442999 1.258427 51.020733 -20.457156 115.711549 0.000000 0.000000 0.000000 -9.007556 3.549577 -5.333098 -8.688654 -1.652512 0.695547 -8.473454 -3.977707 -2.412389 0.000000 0.000000 0.000000 -0.540578 -3.206877 2.369978 -0.440863 3.688974 3.685237 0.144156 -3.026857 -1.019048 0.000000 0.000000 0.000000 
1142.276611 -76.726906 1119.451050 15.889380 -0.183015 1.577297 -0.074524 2.385736 1.880515 -0.057547 -0.241482 -0.329178 -0.029721 0.574516 0.346315 -0.622662 -3.399545 3.438030 0.000000 0.000000 0.000000 2.689199 -2.353767 4.035749 6.511035 -0.593928 -1.606074 176.270030 35.767576 -179.755214 0.000000 0.000000 0.000000 -6.683279 17.737318 -1.615597 -20.844211 4.464479 1.190107 51.039111 -20.512009 115.650681 0.000000 0.000000 0.000000 -9.014636 3.552408 -5.341378 -8.697317 -1.620804 0.687108 -8.480713 -3.988588 -2.411529 0.000000 0.000000 0.000000 -0.546909 -3.205294 2.358478 -0.447010 3.718146 3.682960 0.140386 -3.028011 -1.021207 0.000000 0.000000 0.000000 
1142.040039 -76.444366 1119.462036 15.919881 -0.201480 1.576615 -0.059339 2.370170 1.868524 -0.043114 -0.239054 -0.328126 -0.015184 0.571212 0.344233 -0.649915 -3.066701 3.492278 0.000000 0.000000 0.000000 2.583759 -2.289417 4.061932 6.905600 -0.600384 -1.598317 176.596796 36.081658 -179.520952 0.000000 0.000000 0.000000 -6.655835 17.762055 -1.616009 -20.805400 4.484356 1.147665 51.000126 -20.561779 115.616699 0.000000 0.000000 0.000000 -9.022765 3.547242 -5.360774 -8.707197 -1.589545 0.685758 -8.488864 -3.997253 -2.411893 0.000000 0.000000 0.000000 -0.554856 -3.208589 2.341733 -0.454997 3.738218 3.676739 0.133559 -3.025236 -1.023354 0.000000 0.000000 0.000000 
1141.785889 -76.143158 1119.469971 15.957198 -0.211386 1.579892 -0.050914 2.360863 1.852943 -0.034784 -0.236739 -0.327228 -0.006721 0.567869 0.342511 -0.676504 -2.748789 3.542119 0.000000 0.000000 0.000000 2.477371 -2.207564 4.098441 7.313065 -0.611491 -1.562733 176.933656 36.471564 -179.196275 0.000000 0.000000 0.000000 -6.630808 17.793716 -1.617714 -20.783265 4.507002 1.121228 50.920664 -20.610834 115.594642 0.000000 0.000000 0.000000 -9.032197 3.532968 -5.388030 -8.718663 -1.558883 0.690231 -8.498324 -4.004470 -2.413395 0.000000 0.000000 0.000000 -0.564414 -3.218485 2.321532 -0.464608 3.749965 3.666465 0.123935 -3.018440 -1.025339 0.000000 0.000000 0.000000 
1141.541138 -75.837830 1119.473999 15.997457 -0.214735 1.585200 -0.049018 2.349892 1.839616 -0.033116 -0.236175 -0.326158 -0.005053 0.565378 0.341353 -0.702893 -2.434766 3.587789 0.000000 0.000000 0.000000 2.372234 -2.103465 4.132844 7.791982 -0.623173 -1.529386 177.316250 36.893674 -178.901033 0.000000 0.000000 0.000000 -6.611069 17.834924 -1.624511 -20.791321 4.528652 1.109401 50.815538 -20.658062 115.603962 0.000000 0.000000 0.000000 -9.042770 3.513463 -5.419255 -8.731334 -1.529989 0.699563 -8.508816 -4.010503 -2.415817 0.000000 0.000000 0.000000 -0.575184 -3.231751 2.302170 -0.475157 3.754796 3.650312 0.112234 -3.008048 -1.026984 0.000000 0.000000 0.000000 
1141.319946 -75.541634 1119.473022 16.036620 -0.211669 1.592338 -0.054374 2.332337 1.833673 -0.039497 -0.236787 -0.325118 -0.011544 0.563549 0.340522 -0.728198 -2.122540 3.625754 0.000000 0.000000 0.000000 2.275741 -1.971512 4.158050 8.400149 -0.626914 -1.525335 177.783634 37.330273 -178.720806 0.000000 0.000000 0.000000 -6.600955 17.889251 -1.641676 -20.841510 4.547380 1.116445 50.689776 -20.701893 115.661433 0.000000 0.000000 0.000000 -9.053997 3.489446 -5.453046 -8.744618 -1.503847 0.713594 -8.519823 -4.014658 -2.419191 0.000000 0.000000 0.000000 -0.586323 -3.246543 2.286064 -0.485648 3.751772 3.626351 0.099304 -2.994746 -1.028145 0.000000 0.000000 0.000000 
1141.110474 -75.247948 1119.467041 16.077301 -0.201567 1.601755 -0.066980 2.311538 1.833011 -0.053634 -0.236800 -0.324048 -0.025634 0.560144 0.340741 -0.752435 -1.814164 3.656279 0.000000 0.000000 0.000000 2.185270 -1.813320 4.178200 9.112225 -0.623799 -1.539951 178.320803 37.801854 -178.599395 0.000000 0.000000 0.000000 -6.601158 17.955535 -1.668709 -20.927266 4.565148 1.141741 50.539602 -20.743170 115.758898 0.000000 0.000000 0.000000 -9.066291 3.459713 -5.490910 -8.759000 -1.479965 0.733290 -8.531743 -4.017147 -2.423620 0.000000 0.000000 0.000000 -0.598242 -3.264006 2.272077 -0.496537 3.740015 3.594629 0.084580 -2.977807 -1.028820 0.000000 0.000000 0.000000 
1140.940796 -74.939323 1119.456055 16.119802 -0.189338 1.611097 -0.082174 2.281061 1.832297 -0.071059 -0.237575 -0.323824 -0.042937 0.554911 0.340930 -0.779892 -1.491400 3.691802 0.000000 0.000000 0.000000 2.075298 -1.640694 4.189684 9.826503 -0.642207 -1.538944 178.847205 38.262427 -178.497474 0.000000 0.000000 0.000000 -6.596382 18.029661 -1.691336 -21.046782 4.578836 1.169106 50.370460 -20.780555 115.887260 0.000000 0.000000 0.000000 -9.080100 3.431606 -5.530602 -8.774685 -1.457786 0.756832 -8.544799 -4.020861 -2.428106 0.000000 0.000000 0.000000 -0.610986 -3.282270 2.257849 -0.508172 3.729693 3.562533 0.069267 -2.961679 -1.030057 0.000000 0.000000 0.000000 
1140.827393 -74.602875 1119.441040 16.162518 -0.176520 1.619834 -0.096860 2.234132 1.826903 -0.088885 -0.236320 -0.323039 -0.060598 0.547072 0.339872 -0.813151 -1.143808 3.739157 0.000000 0.000000 0.000000 1.936775 -1.461734 4.192685 10.510165 -0.695210 -1.512745 179.335005 38.689231 -178.413230 0.000000 0.000000 0.000000 -6.584777 18.110100 -1.703852 -21.201599 4.587010 1.194275 50.180860 -20.809887 116.042931 0.000000 0.000000 0.000000 -9.095734 3.408312 -5.571755 -8.791834 -1.438336 0.784158 -8.559174 -4.027308 -2.432164 0.000000 0.000000 0.000000 -0.624326 -3.302161 2.239776 -0.520686 3.728000 3.536453 0.054326 -2.948723 -1.032269 0.000000 0.000000 0.000000 
